<mxfile host="app.diagrams.net" agent="Mozilla/5.0 (Macintosh; Intel Mac OS X 10_15_7) AppleWebKit/605.1.15 (KHTML, like Gecko) Version/18.5 Safari/605.1.15" version="26.3.0">
  <diagram name="Page-1" id="XIVHAU0PDGDdikp9HGy8">
    <mxGraphModel dx="976" dy="671" grid="1" gridSize="10" guides="1" tooltips="1" connect="1" arrows="1" fold="1" page="1" pageScale="1" pageWidth="850" pageHeight="1100" math="0" shadow="0">
      <root>
        <mxCell id="0" />
        <mxCell id="1" parent="0" />
        <mxCell id="OoGDG2oWqa-N6CHyW_qH-6" value="" style="edgeStyle=orthogonalEdgeStyle;rounded=0;orthogonalLoop=1;jettySize=auto;html=1;" edge="1" parent="1" source="OoGDG2oWqa-N6CHyW_qH-1" target="OoGDG2oWqa-N6CHyW_qH-2">
          <mxGeometry relative="1" as="geometry" />
        </mxCell>
        <mxCell id="OoGDG2oWqa-N6CHyW_qH-1" value="Coordinates&lt;div&gt;&lt;div&gt;&lt;br&gt;&lt;/div&gt;&lt;/div&gt;" style="rounded=1;whiteSpace=wrap;html=1;" vertex="1" parent="1">
          <mxGeometry x="340" y="70" width="120" height="60" as="geometry" />
        </mxCell>
        <mxCell id="OoGDG2oWqa-N6CHyW_qH-7" value="" style="edgeStyle=orthogonalEdgeStyle;rounded=0;orthogonalLoop=1;jettySize=auto;html=1;" edge="1" parent="1" source="OoGDG2oWqa-N6CHyW_qH-2" target="OoGDG2oWqa-N6CHyW_qH-3">
          <mxGeometry relative="1" as="geometry" />
        </mxCell>
        <mxCell id="OoGDG2oWqa-N6CHyW_qH-2" value="Get Building Footprints" style="rounded=1;whiteSpace=wrap;html=1;" vertex="1" parent="1">
          <mxGeometry x="340" y="170" width="120" height="60" as="geometry" />
        </mxCell>
        <mxCell id="OoGDG2oWqa-N6CHyW_qH-8" value="" style="edgeStyle=orthogonalEdgeStyle;rounded=0;orthogonalLoop=1;jettySize=auto;html=1;" edge="1" parent="1" source="OoGDG2oWqa-N6CHyW_qH-3" target="OoGDG2oWqa-N6CHyW_qH-4">
          <mxGeometry relative="1" as="geometry" />
        </mxCell>
        <mxCell id="OoGDG2oWqa-N6CHyW_qH-3" value="Map on Satellite View Images" style="rounded=1;whiteSpace=wrap;html=1;" vertex="1" parent="1">
          <mxGeometry x="340" y="270" width="120" height="60" as="geometry" />
        </mxCell>
        <mxCell id="OoGDG2oWqa-N6CHyW_qH-9" value="" style="edgeStyle=orthogonalEdgeStyle;rounded=0;orthogonalLoop=1;jettySize=auto;html=1;" edge="1" parent="1" source="OoGDG2oWqa-N6CHyW_qH-4" target="OoGDG2oWqa-N6CHyW_qH-5">
          <mxGeometry relative="1" as="geometry" />
        </mxCell>
        <mxCell id="OoGDG2oWqa-N6CHyW_qH-4" value="Segmentation model for trees" style="rounded=1;whiteSpace=wrap;html=1;" vertex="1" parent="1">
          <mxGeometry x="340" y="370" width="120" height="60" as="geometry" />
        </mxCell>
        <mxCell id="OoGDG2oWqa-N6CHyW_qH-5" value="Inpainting Technique" style="rounded=1;whiteSpace=wrap;html=1;" vertex="1" parent="1">
          <mxGeometry x="340" y="470" width="120" height="60" as="geometry" />
        </mxCell>
      </root>
    </mxGraphModel>
  </diagram>
</mxfile>
